<svg xmlns:xlink="http://www.w3.org/1999/xlink" width="100" viewBox="0 0 100 57" fill="none" xmlns="http://www.w3.org/2000/svg" height="57" ><path fill-rule="evenodd" clip-rule="evenodd" d="M11.79 43.2313L32.7059 55.3071C36.7786 57.6585 41.9862 56.2631 44.3376 52.1904C46.6889 48.1178 45.2935 42.9101 41.2209 40.5588L27.6957 32.75L15.4513 41.3244C14.2916 42.1365 13.0603 42.7703 11.79 43.2313Z" fill="#F0402C"></path><path fill-rule="evenodd" clip-rule="evenodd" d="M3.63141 21.078L31.5308 1.54086C35.3829 -1.15666 40.6924 -0.220687 43.3899 3.63141C44.0643 4.59444 44.5116 5.64855 44.743 6.73017C45.1271 8.52582 44.9163 10.3973 44.1617 12.0536C43.5528 13.3903 42.5896 14.5869 41.2994 15.4904L13.4 35.0276C9.54788 37.7251 4.23837 36.7891 1.54086 32.937C0.499002 31.4493 -0.000839703 29.7441 1.05885e-06 28.0559C0.00136623 25.3733 1.26712 22.7336 3.63141 21.078Z" fill="#F0402C"></path><path fill-rule="evenodd" clip-rule="evenodd" d="M87.3994 13.2184L66.4835 1.14256C62.4109 -1.20878 57.2032 0.186612 54.8519 4.25926C52.5005 8.33191 53.8959 13.5396 57.9686 15.8909L71.4938 23.6997L83.7382 15.1253C84.8979 14.3132 86.1292 13.6794 87.3994 13.2184Z" fill="#F0402C"></path><path fill-rule="evenodd" clip-rule="evenodd" d="M95.558 35.3712L67.6587 54.9084C63.8066 57.6059 58.4971 56.6699 55.7995 52.8178C55.1252 51.8548 54.6779 50.8007 54.4465 49.719C54.0623 47.9234 54.2732 46.0519 55.0277 44.3956C55.6367 43.0589 56.5998 41.8623 57.8901 40.9588L85.7895 21.4216C89.6416 18.7241 94.9511 19.6601 97.6486 23.5122C98.6905 25 99.1903 26.7052 99.1895 28.3933C99.1881 31.076 97.9223 33.7156 95.558 35.3712Z" fill="#F0402C"></path></svg>