<svg width="90" height="90" viewBox="0 0 90 90" fill="none" xmlns="http://www.w3.org/2000/svg">
<g clip-path="url(#clip0_1_2)">
<rect width="90" height="90" rx="4" fill="#F2F2F2"/>
<path d="M20.127 44.0137V49H18.7148V42.6602H20.0449L20.127 44.0137ZM19.875 45.5957L19.418 45.5898C19.4219 45.1406 19.4844 44.7285 19.6055 44.3535C19.7305 43.9785 19.9023 43.6562 20.1211 43.3867C20.3438 43.1172 20.6094 42.9102 20.918 42.7656C21.2266 42.6172 21.5703 42.543 21.9492 42.543C22.2539 42.543 22.5293 42.5859 22.7754 42.6719C23.0254 42.7539 23.2383 42.8887 23.4141 43.0762C23.5938 43.2637 23.7305 43.5078 23.8242 43.8086C23.918 44.1055 23.9648 44.4707 23.9648 44.9043V49H22.5469V44.8984C22.5469 44.5938 22.502 44.3535 22.4121 44.1777C22.3262 43.998 22.1992 43.8711 22.0312 43.7969C21.8672 43.7188 21.6621 43.6797 21.416 43.6797C21.1738 43.6797 20.957 43.7305 20.7656 43.832C20.5742 43.9336 20.4121 44.0723 20.2793 44.248C20.1504 44.4238 20.0508 44.627 19.9805 44.8574C19.9102 45.0879 19.875 45.334 19.875 45.5957ZM25.1367 45.9004V45.7656C25.1367 45.3086 25.2031 44.8848 25.3359 44.4941C25.4688 44.0996 25.6602 43.7578 25.9102 43.4688C26.1641 43.1758 26.4727 42.9492 26.8359 42.7891C27.2031 42.625 27.6172 42.543 28.0781 42.543C28.543 42.543 28.957 42.625 29.3203 42.7891C29.6875 42.9492 29.998 43.1758 30.252 43.4688C30.5059 43.7578 30.6992 44.0996 30.832 44.4941C30.9648 44.8848 31.0312 45.3086 31.0312 45.7656V45.9004C31.0312 46.3574 30.9648 46.7812 30.832 47.1719C30.6992 47.5625 30.5059 47.9043 30.252 48.1973C29.998 48.4863 29.6895 48.7129 29.3262 48.877C28.9629 49.0371 28.5508 49.1172 28.0898 49.1172C27.625 49.1172 27.209 49.0371 26.8418 48.877C26.4785 48.7129 26.1699 48.4863 25.916 48.1973C25.6621 47.9043 25.4688 47.5625 25.3359 47.1719C25.2031 46.7812 25.1367 46.3574 25.1367 45.9004ZM26.5488 45.7656V45.9004C26.5488 46.1855 26.5781 46.4551 26.6367 46.709C26.6953 46.9629 26.7871 47.1855 26.9121 47.377C27.0371 47.5684 27.1973 47.7188 27.3926 47.8281C27.5879 47.9375 27.8203 47.9922 28.0898 47.9922C28.3516 47.9922 28.5781 47.9375 28.7695 47.8281C28.9648 47.7188 29.125 47.5684 29.25 47.377C29.375 47.1855 29.4668 46.9629 29.5254 46.709C29.5879 46.4551 29.6191 46.1855 29.6191 45.9004V45.7656C29.6191 45.4844 29.5879 45.2188 29.5254 44.9688C29.4668 44.7148 29.373 44.4902 29.2441 44.2949C29.1191 44.0996 28.959 43.9473 28.7637 43.8379C28.5723 43.7246 28.3438 43.668 28.0781 43.668C27.8125 43.668 27.582 43.7246 27.3867 43.8379C27.1953 43.9473 27.0371 44.0996 26.9121 44.2949C26.7871 44.4902 26.6953 44.7148 26.6367 44.9688C26.5781 45.2188 26.5488 45.4844 26.5488 45.7656ZM35.1211 42.6602V43.6914H31.5469V42.6602H35.1211ZM32.5781 41.1074H33.9902V47.248C33.9902 47.4434 34.0176 47.5938 34.0723 47.6992C34.1309 47.8008 34.2109 47.8691 34.3125 47.9043C34.4141 47.9395 34.5332 47.957 34.6699 47.957C34.7676 47.957 34.8613 47.9512 34.9512 47.9395C35.041 47.9277 35.1133 47.916 35.168 47.9043L35.1738 48.9824C35.0566 49.0176 34.9199 49.0488 34.7637 49.0762C34.6113 49.1035 34.4355 49.1172 34.2363 49.1172C33.9121 49.1172 33.625 49.0605 33.375 48.9473C33.125 48.8301 32.9297 48.6406 32.7891 48.3789C32.6484 48.1172 32.5781 47.7695 32.5781 47.3359V41.1074ZM41.1094 49H39.6973V42.0508C39.6973 41.5781 39.7852 41.1816 39.9609 40.8613C40.1406 40.5371 40.3965 40.293 40.7285 40.1289C41.0605 39.9609 41.4531 39.877 41.9062 39.877C42.0469 39.877 42.1855 39.8867 42.3223 39.9062C42.459 39.9219 42.5918 39.9473 42.7207 39.9824L42.6855 41.0723C42.6074 41.0527 42.5215 41.0391 42.4277 41.0312C42.3379 41.0234 42.2402 41.0195 42.1348 41.0195C41.9199 41.0195 41.7344 41.0605 41.5781 41.1426C41.4258 41.2207 41.3086 41.3359 41.2266 41.4883C41.1484 41.6406 41.1094 41.8281 41.1094 42.0508V49ZM42.416 42.6602V43.6914H38.7246V42.6602H42.416ZM43.1719 45.9004V45.7656C43.1719 45.3086 43.2383 44.8848 43.3711 44.4941C43.5039 44.0996 43.6953 43.7578 43.9453 43.4688C44.1992 43.1758 44.5078 42.9492 44.8711 42.7891C45.2383 42.625 45.6523 42.543 46.1133 42.543C46.5781 42.543 46.9922 42.625 47.3555 42.7891C47.7227 42.9492 48.0332 43.1758 48.2871 43.4688C48.541 43.7578 48.7344 44.0996 48.8672 44.4941C49 44.8848 49.0664 45.3086 49.0664 45.7656V45.9004C49.0664 46.3574 49 46.7812 48.8672 47.1719C48.7344 47.5625 48.541 47.9043 48.2871 48.1973C48.0332 48.4863 47.7246 48.7129 47.3613 48.877C46.998 49.0371 46.5859 49.1172 46.125 49.1172C45.6602 49.1172 45.2441 49.0371 44.877 48.877C44.5137 48.7129 44.2051 48.4863 43.9512 48.1973C43.6973 47.9043 43.5039 47.5625 43.3711 47.1719C43.2383 46.7812 43.1719 46.3574 43.1719 45.9004ZM44.584 45.7656V45.9004C44.584 46.1855 44.6133 46.4551 44.6719 46.709C44.7305 46.9629 44.8223 47.1855 44.9473 47.377C45.0723 47.5684 45.2324 47.7188 45.4277 47.8281C45.623 47.9375 45.8555 47.9922 46.125 47.9922C46.3867 47.9922 46.6133 47.9375 46.8047 47.8281C47 47.7188 47.1602 47.5684 47.2852 47.377C47.4102 47.1855 47.502 46.9629 47.5605 46.709C47.623 46.4551 47.6543 46.1855 47.6543 45.9004V45.7656C47.6543 45.4844 47.623 45.2188 47.5605 44.9688C47.502 44.7148 47.4082 44.4902 47.2793 44.2949C47.1543 44.0996 46.9941 43.9473 46.7988 43.8379C46.6074 43.7246 46.3789 43.668 46.1133 43.668C45.8477 43.668 45.6172 43.7246 45.4219 43.8379C45.2305 43.9473 45.0723 44.0996 44.9473 44.2949C44.8223 44.4902 44.7305 44.7148 44.6719 44.9688C44.6133 45.2188 44.584 45.4844 44.584 45.7656ZM54.0645 47.5059V42.6602H55.4824V49H54.1465L54.0645 47.5059ZM54.2637 46.1875L54.7383 46.1758C54.7383 46.6016 54.6914 46.9941 54.5977 47.3535C54.5039 47.709 54.3594 48.0195 54.1641 48.2852C53.9688 48.5469 53.7188 48.752 53.4141 48.9004C53.1094 49.0449 52.7441 49.1172 52.3184 49.1172C52.0098 49.1172 51.7266 49.0723 51.4688 48.9824C51.2109 48.8926 50.9883 48.7539 50.8008 48.5664C50.6172 48.3789 50.4746 48.1348 50.373 47.834C50.2715 47.5332 50.2207 47.1738 50.2207 46.7559V42.6602H51.6328V46.7676C51.6328 46.998 51.6602 47.1914 51.7148 47.3477C51.7695 47.5 51.8438 47.623 51.9375 47.7168C52.0312 47.8105 52.1406 47.877 52.2656 47.916C52.3906 47.9551 52.5234 47.9746 52.6641 47.9746C53.0664 47.9746 53.3828 47.8965 53.6133 47.7402C53.8477 47.5801 54.0137 47.3652 54.1113 47.0957C54.2129 46.8262 54.2637 46.5234 54.2637 46.1875ZM58.3301 44.0137V49H56.918V42.6602H58.248L58.3301 44.0137ZM58.0781 45.5957L57.6211 45.5898C57.625 45.1406 57.6875 44.7285 57.8086 44.3535C57.9336 43.9785 58.1055 43.6562 58.3242 43.3867C58.5469 43.1172 58.8125 42.9102 59.1211 42.7656C59.4297 42.6172 59.7734 42.543 60.1523 42.543C60.457 42.543 60.7324 42.5859 60.9785 42.6719C61.2285 42.7539 61.4414 42.8887 61.6172 43.0762C61.7969 43.2637 61.9336 43.5078 62.0273 43.8086C62.1211 44.1055 62.168 44.4707 62.168 44.9043V49H60.75V44.8984C60.75 44.5938 60.7051 44.3535 60.6152 44.1777C60.5293 43.998 60.4023 43.8711 60.2344 43.7969C60.0703 43.7188 59.8652 43.6797 59.6191 43.6797C59.377 43.6797 59.1602 43.7305 58.9688 43.832C58.7773 43.9336 58.6152 44.0723 58.4824 44.248C58.3535 44.4238 58.2539 44.627 58.1836 44.8574C58.1133 45.0879 58.0781 45.334 58.0781 45.5957ZM67.4766 47.6875V40H68.8945V49H67.6113L67.4766 47.6875ZM63.3516 45.9004V45.7773C63.3516 45.2969 63.4082 44.8594 63.5215 44.4648C63.6348 44.0664 63.7988 43.7246 64.0137 43.4395C64.2285 43.1504 64.4902 42.9297 64.7988 42.7773C65.1074 42.6211 65.4551 42.543 65.8418 42.543C66.2246 42.543 66.5605 42.6172 66.8496 42.7656C67.1387 42.9141 67.3848 43.127 67.5879 43.4043C67.791 43.6777 67.9531 44.0059 68.0742 44.3887C68.1953 44.7676 68.2812 45.1895 68.332 45.6543V46.0469C68.2812 46.5 68.1953 46.9141 68.0742 47.2891C67.9531 47.6641 67.791 47.9883 67.5879 48.2617C67.3848 48.5352 67.1367 48.7461 66.8438 48.8945C66.5547 49.043 66.2168 49.1172 65.8301 49.1172C65.4473 49.1172 65.1016 49.0371 64.793 48.877C64.4883 48.7168 64.2285 48.4922 64.0137 48.2031C63.7988 47.9141 63.6348 47.5742 63.5215 47.1836C63.4082 46.7891 63.3516 46.3613 63.3516 45.9004ZM64.7637 45.7773V45.9004C64.7637 46.1895 64.7891 46.459 64.8398 46.709C64.8945 46.959 64.9785 47.1797 65.0918 47.3711C65.2051 47.5586 65.3516 47.707 65.5312 47.8164C65.7148 47.9219 65.9336 47.9746 66.1875 47.9746C66.5078 47.9746 66.7715 47.9043 66.9785 47.7637C67.1855 47.623 67.3477 47.4336 67.4648 47.1953C67.5859 46.9531 67.668 46.6836 67.7109 46.3867V45.3262C67.6875 45.0957 67.6387 44.8809 67.5645 44.6816C67.4941 44.4824 67.3984 44.3086 67.2773 44.1602C67.1562 44.0078 67.0059 43.8906 66.8262 43.8086C66.6504 43.7227 66.4414 43.6797 66.1992 43.6797C65.9414 43.6797 65.7227 43.7344 65.543 43.8438C65.3633 43.9531 65.2148 44.1035 65.0977 44.2949C64.9844 44.4863 64.9004 44.709 64.8457 44.9629C64.791 45.2168 64.7637 45.4883 64.7637 45.7773Z" fill="#BDBDBD"/>
</g>
<defs>
<clipPath id="clip0_1_2">
<rect width="90" height="90" fill="white"/>
</clipPath>
</defs>
</svg>
